<svg width="100" height="100" viewBox="0 0 100 100" fill="none" xmlns="http://www.w3.org/2000/svg">
<path d="M99.0375 41.6554L76.5153 63.249L82.05 93.9589C82.2592 95.136 81.7819 96.3371 80.8118 97.0369C79.8112 97.7584 78.5295 97.8172 77.494 97.2614L50.0013 82.5167L22.5063 97.2636C21.4491 97.8391 20.1695 97.7454 19.1907 97.0413C18.2185 96.335 17.7411 95.1405 17.9525 93.9633L23.4829 63.2556L0.960654 41.6575C0.0974113 40.827 -0.216501 39.5757 0.151922 38.4379C0.524681 37.2978 1.51434 36.4695 2.69801 36.3038L33.611 32.0749L47.1872 3.98054C48.2314 1.82029 51.7693 1.82029 52.8112 3.98054L66.3896 32.0749L97.3026 36.3038C98.4928 36.4695 99.4781 37.2934 99.8487 38.4379C100.215 39.5736 99.9051 40.8226 99.0375 41.6554Z" fill="#FF9500"/>
</svg>
