<svg width="100" height="100" viewBox="0 0 100 100" fill="none" xmlns="http://www.w3.org/2000/svg">
<path d="M86.6667 13.3333H83.3334V10C83.3334 4.47314 78.8602 0 73.3334 0C67.8065 0 63.3334 4.47314 63.3334 10V13.3333H36.6667V10C36.6667 4.48 32.1936 0 26.6667 0C21.1399 0.00669638 16.6667 4.48 16.6667 10V13.3333H13.3334C7.83337 13.3333 3.33337 17.8333 3.33337 23.3333V90C3.33337 95.5 7.83337 100 13.3334 100H86.6667C92.1667 100 96.6667 95.5 96.6667 90V23.3333C96.6667 17.8333 92.1667 13.3333 86.6667 13.3333ZM70 10C70 8.15996 71.5 6.66667 73.3334 6.66667C75.1667 6.66667 76.6667 8.15996 76.6667 10V23.3333C76.6667 25.1734 75.1667 26.6667 73.3334 26.6667C71.5 26.6667 70 25.1734 70 23.3333V10ZM23.3334 10C23.3334 8.16667 24.8267 6.66667 26.6667 6.66667C28.5067 6.66667 30 8.16667 30 10V23.3333C30 25.1667 28.5067 26.6667 26.6667 26.6667C24.8267 26.6667 23.3334 25.1667 23.3334 23.3333V10ZM90 90C90 91.8066 88.4733 93.3333 86.6667 93.3333H13.3334C11.5268 93.3333 10 91.8066 10 90V33.3333H90V90Z" fill="white"/>
<path d="M23.3334 46.6666H36.6667V53.3333H23.3334V46.6666Z" fill="white"/>
<path d="M43.3334 46.6666H56.6667V53.3333H43.3334V46.6666Z" fill="white"/>
<path d="M63.3334 46.6666H76.6667V53.3333H63.3334V46.6666Z" fill="white"/>
<path d="M23.3334 60H36.6667V66.6667H23.3334V60Z" fill="white"/>
<path d="M43.3334 60H56.6667V66.6667H43.3334V60Z" fill="white"/>
<path d="M63.3334 60H76.6667V66.6667H63.3334V60Z" fill="white"/>
<path d="M23.3334 73.3334H36.6667V80H23.3334V73.3334Z" fill="white"/>
<path d="M43.3334 73.3334H56.6667V80H43.3334V73.3334Z" fill="white"/>
<path d="M63.3334 73.3334H76.6667V80H63.3334V73.3334Z" fill="white"/>
</svg>
