<svg width="100" height="100" viewBox="0 0 100 100" fill="none" xmlns="http://www.w3.org/2000/svg">
<path d="M81.0089 93.0762H6.92389V18.9913H33.696V12.067L3.46198 12.0678C2.54354 12.0678 1.66292 12.4325 1.01412 13.0813C0.364534 13.7308 -0.00012207 14.6115 -0.00012207 15.5291V96.5379C-0.00012207 97.4564 0.364513 98.337 1.01412 98.9858C1.6629 99.6354 2.54352 100 3.46198 100H84.4708C85.3884 100 86.269 99.6354 86.9186 98.9858C87.5674 98.337 87.9321 97.4564 87.9321 96.5379V66.3039H81.0078L81.0089 93.0762Z" fill="white"/>
<path d="M86.6635 0.989283C86.0172 0.354991 85.147 0 84.2406 0C83.3343 0 82.4641 0.354991 81.8169 0.989283L32.3115 50.3793C31.8792 50.7914 31.5613 51.3082 31.3882 51.8797L26.6567 69.0734C26.3686 70.1175 26.5843 71.2363 27.2411 72.0968C27.8987 72.9581 28.9202 73.462 30.0036 73.4588H30.9269L48.1207 68.4972C48.6922 68.3233 49.209 68.0053 49.6211 67.5739L99.0111 18.2993C99.6454 17.6521 100 16.782 100 15.8755C100 14.97 99.6454 14.0998 99.0111 13.4526L86.6635 0.989283ZM88.9713 18.414L81.5859 11.0286L84.2398 8.3747L91.6252 15.7601L88.9713 18.414Z" fill="white"/>
</svg>
