<svg width="100" height="100" viewBox="0 0 100 100" fill="none" xmlns="http://www.w3.org/2000/svg">
<path d="M98.2321 78.232L59.1795 10.5908C57.2894 7.31675 53.7678 5.28394 49.9873 5.28394C46.2061 5.28394 42.6847 7.31675 40.7952 10.5908L1.41663 78.7964C-0.472209 82.0697 -0.472209 86.1353 1.41663 89.4101C3.30751 92.6834 6.82964 94.7162 10.6088 94.7162L89.2597 94.714C89.2976 94.7147 89.3419 94.7162 89.3783 94.7162H89.4329C95.2637 94.6914 100 89.9404 100 84.1025C100 82.0013 99.3896 79.9735 98.2313 78.2316L98.2321 78.232ZM89.3879 89.5013C89.3799 89.5021 89.3711 89.5013 89.366 89.5013H10.609C8.68678 89.5013 6.89405 88.4667 5.93296 86.8028C4.97258 85.1374 4.97258 83.0674 5.93296 81.4029L45.3115 13.1991C46.2734 11.5337 48.0638 10.4999 49.9862 10.4999C51.9084 10.4999 53.7004 11.5338 54.6609 13.1991L93.7582 80.9167C93.7895 80.972 93.8237 81.0251 93.8593 81.0761C94.4654 81.9688 94.7855 83.015 94.7855 84.102C94.7862 87.0799 92.3642 89.502 89.3883 89.502L89.3879 89.5013ZM44.3564 58.5007C44.5543 62.3059 47.3328 64.0098 49.998 64.0098C52.6063 64.0098 55.4708 62.0751 55.641 58.4766L56.6843 34.1421C56.6851 34.1043 56.6865 34.0679 56.6865 34.0308C56.6865 30.3434 53.6869 27.3438 49.9988 27.3438C46.3107 27.3438 43.311 30.3434 43.311 34.0308C43.311 34.0686 43.3117 34.105 43.3132 34.1421L44.3564 58.5007ZM49.9987 32.5569C50.7976 32.5569 51.4488 33.1942 51.4706 33.9865L50.4316 58.241C50.4236 58.4207 50.4054 58.7939 49.9987 58.7939C49.7935 58.7939 49.6815 58.7459 49.6735 58.743C49.6728 58.7423 49.5847 58.6179 49.5658 58.2519L48.5261 33.9863C48.5487 33.1954 49.1991 32.5566 49.9987 32.5566V32.5569ZM49.9987 66.3961C47.9396 66.3961 45.9221 67.2335 44.4618 68.693C43.0081 70.146 42.1759 72.1598 42.1759 74.2189C42.1759 76.2845 43.009 78.3028 44.4618 79.7558C45.9148 81.2095 47.9324 82.0417 49.9987 82.0417C52.0716 82.0417 54.0884 81.205 55.5151 79.7644C56.9804 78.3136 57.8215 76.2923 57.8215 74.2189C57.8215 72.1518 56.9812 70.1335 55.5341 68.701C54.0819 67.2357 52.0636 66.3961 49.9987 66.3961ZM51.8278 76.075C50.8892 77.0245 49.1075 77.0223 48.15 76.067C47.6683 75.5839 47.3904 74.9116 47.3904 74.2189C47.3904 73.5336 47.6676 72.8628 48.15 72.3804C48.6316 71.8987 49.3235 71.6113 49.998 71.6113C50.6717 71.6113 51.3564 71.8951 51.8453 72.3906C52.3211 72.8613 52.6056 73.5445 52.6056 74.2189C52.6063 74.9094 52.3284 75.5788 51.8278 76.075Z" fill="white"/>
</svg>
