<svg width="100" height="100" viewBox="0 0 100 100" fill="none" xmlns="http://www.w3.org/2000/svg">
<g clip-path="url(#clip0_46_1594)">
<path d="M82.2366 41.6667H99.2932C95.3119 18.0516 74.7298 0 49.9996 0C36.2131 0 23.7278 5.62143 14.6801 14.6801L0 0V41.6667H41.6667L26.4734 26.4734C32.494 20.4243 40.8048 16.6667 49.9993 16.6667C65.4978 16.6667 78.521 27.3135 82.2353 41.6667H82.2366Z" fill="#FF2D2D"/>
<path d="M73.5263 73.5258C67.5058 79.5751 59.1951 83.3325 50.0006 83.3325C34.5019 83.3325 21.4787 72.6858 17.7644 58.3326H0.70874C4.68929 81.9477 25.2722 99.9992 50.0004 99.9992C63.7869 99.9992 76.2722 94.3777 85.3198 85.3191L100 99.9992V58.3326H58.3333L73.5263 73.5258Z" fill="#FF2D2D"/>
</g>
<defs>
<clipPath id="clip0_46_1594">
<rect width="100" height="100" fill="white"/>
</clipPath>
</defs>
</svg>
