<svg width="100" height="100" viewBox="0 0 100 100" fill="none" xmlns="http://www.w3.org/2000/svg">
<path fill-rule="evenodd" clip-rule="evenodd" d="M63.2551 15.9378C62.2411 15.5015 61.0928 15.5015 60.0788 15.9378L34.2933 27.0372L55.3434 44.2376C57.5544 46.1452 58.4676 48.4239 58.2544 51.0222L59.8625 51.8311C60.9978 52.4016 62.3365 52.4016 63.4709 51.8311L99.2626 33.8321C100.278 33.3211 100.235 31.8562 99.191 31.4061L63.2551 15.9378ZM48.889 62.3775C48.889 62.3775 56.0407 56.4685 56.3646 56.0656L57.4568 56.6149C60.1057 57.9471 63.2283 57.9471 65.8772 56.6149L91.0377 43.9619L99.1904 47.4711C100.235 47.9212 100.278 49.386 99.262 49.8972L63.4703 67.8953C62.335 68.4666 60.9971 68.4666 59.8619 67.8953L48.889 62.3775ZM36.6446 72.2848L44.3204 66.0739L57.4569 72.6796C60.1059 74.0118 63.2284 74.0118 65.8774 72.6796L91.0379 60.0266L99.1906 63.5358C100.236 63.9858 100.279 65.4507 99.2622 65.9619L63.4704 83.9609C62.3352 84.5322 60.9973 84.5322 59.8621 83.9609L36.6446 72.2848Z" fill="white"/>
<path d="M50.622 49.7548L21.3802 25.8589C20.6609 25.3023 19.7298 25.7132 19.7298 26.7964V40.8517H0V60.2959H19.729V74.352C19.729 75.3001 20.3386 76.074 21.3794 75.2887L50.6212 51.6282C51.2527 51.1814 51.2315 50.2081 50.622 49.754L50.622 49.7548Z" fill="white"/>
</svg>
