<svg width="100" height="100" viewBox="0 0 100 100" fill="none" xmlns="http://www.w3.org/2000/svg">
<path d="M50 0.00167534C36.7387 0.00167534 24.0212 5.26934 14.6445 14.6459C5.26775 24.0236 0 36.7411 0 50.0008C0 63.2605 5.26775 75.9792 14.6445 85.3558C24.0223 94.7323 36.7401 100 50 100C63.2599 100 75.9788 94.7323 85.3555 85.3558C94.7323 75.9781 100 63.2605 100 50.0008C100 41.2236 97.6893 32.6013 93.3011 24.9999C88.9129 17.3987 82.601 11.087 74.9997 6.69877C67.3985 2.31059 58.7757 0 49.9983 0L50 0.00167534ZM42.9361 73.2786L21.7117 52.0871L28.7755 44.9904L42.9361 59.1508L71.2239 30.8635L78.2878 37.9273L42.9361 73.2786Z" fill="#007AFF"/>
</svg>
