<svg width="100" height="100" viewBox="0 0 100 100" fill="none" xmlns="http://www.w3.org/2000/svg">
<path fill-rule="evenodd" clip-rule="evenodd" d="M12.5013 0.000976562C5.59558 0.000976562 0.00146484 5.5949 0.00146484 12.5008C0.00146484 19.4072 5.59539 25.0006 12.5013 25.0006C19.4077 25.0006 25.0011 19.4074 25.0011 12.5008C25.0011 5.59509 19.4079 0.000976562 12.5013 0.000976562Z" fill="white"/>
<path fill-rule="evenodd" clip-rule="evenodd" d="M50.0009 0.000976562C43.0945 0.000976562 37.5011 5.5949 37.5011 12.5008C37.5011 19.4072 43.0943 25.0006 50.0009 25.0006C56.9066 25.0006 62.5007 19.4074 62.5007 12.5008C62.5007 5.59509 56.9068 0.000976562 50.0009 0.000976562Z" fill="white"/>
<path fill-rule="evenodd" clip-rule="evenodd" d="M87.4986 24.9996C94.405 24.9996 99.9984 19.4065 99.9984 12.4998C99.9984 5.59411 94.4052 0 87.4986 0C80.5929 0 74.9995 5.59392 74.9995 12.4998C74.9995 19.4063 80.5927 24.9996 87.4986 24.9996Z" fill="white"/>
<path fill-rule="evenodd" clip-rule="evenodd" d="M12.5013 37.5007C5.59558 37.5007 0.00146484 43.0947 0.00146484 50.0005C0.00146484 56.9064 5.59539 62.5004 12.5013 62.5004C19.4077 62.5004 25.0011 56.9064 25.0011 50.0005C25.0011 43.0947 19.4079 37.5007 12.5013 37.5007Z" fill="white"/>
<path fill-rule="evenodd" clip-rule="evenodd" d="M50.0009 37.5007C43.0945 37.5007 37.5011 43.0947 37.5011 50.0005C37.5011 56.9064 43.0943 62.5004 50.0009 62.5004C56.9066 62.5004 62.5007 56.9064 62.5007 50.0005C62.5007 43.0947 56.9068 37.5007 50.0009 37.5007Z" fill="white"/>
<path fill-rule="evenodd" clip-rule="evenodd" d="M87.4986 37.5007C80.5929 37.5007 74.9995 43.0947 74.9995 50.0005C74.9995 56.9064 80.5927 62.5004 87.4986 62.5004C94.405 62.5004 99.9984 56.9064 99.9984 50.0005C99.9984 43.0947 94.4052 37.5007 87.4986 37.5007Z" fill="white"/>
<path fill-rule="evenodd" clip-rule="evenodd" d="M12.5013 75.0004C5.59558 75.0004 0.00146484 80.5935 0.00146484 87.5002C0.00146484 94.4059 5.59539 100 12.5013 100C19.4077 100 25.0011 94.4061 25.0011 87.5002C25.0011 80.5937 19.4079 75.0004 12.5013 75.0004Z" fill="white"/>
<path fill-rule="evenodd" clip-rule="evenodd" d="M50.0009 75.0004C43.0945 75.0004 37.5011 80.5935 37.5011 87.5002C37.5011 94.4059 43.0943 100 50.0009 100C56.9066 100 62.5007 94.4061 62.5007 87.5002C62.5007 80.5937 56.9068 75.0004 50.0009 75.0004Z" fill="white"/>
<path fill-rule="evenodd" clip-rule="evenodd" d="M87.4986 75.0004C80.5929 75.0004 74.9995 80.5935 74.9995 87.5002C74.9995 94.4059 80.5927 100 87.4986 100C94.405 100 99.9984 94.4061 99.9984 87.5002C99.9984 80.5937 94.4052 75.0004 87.4986 75.0004Z" fill="white"/>
</svg>
