<svg width="100" height="100" viewBox="0 0 100 100" fill="none" xmlns="http://www.w3.org/2000/svg">
<mask id="mask0_46_1594" style="mask-type:luminance" maskUnits="userSpaceOnUse" x="18" y="0" width="64" height="100">
<path d="M81.2874 0H18.7125V100H81.2874V0Z" fill="white"/>
</mask>
<g mask="url(#mask0_46_1594)">
<path d="M43.7425 87.5C43.7425 94.375 38.1107 100 31.2275 100C24.3443 100 18.7125 94.375 18.7125 87.5C18.7125 80.625 24.3443 75 31.2275 75C38.1107 75 43.7425 80.625 43.7425 87.5ZM31.2275 37.5C24.3443 37.5 18.7125 43.125 18.7125 50C18.7125 56.875 24.3443 62.5 31.2275 62.5C38.1107 62.5 43.7425 56.875 43.7425 50C43.7425 43.125 38.1107 37.5 31.2275 37.5ZM31.2275 0C24.3443 0 18.7125 5.625 18.7125 12.5C18.7125 19.375 24.3443 25 31.2275 25C38.1107 25 43.7425 19.375 43.7425 12.5C43.7425 5.625 38.1107 0 31.2275 0ZM68.7724 25C75.6556 25 81.2874 19.375 81.2874 12.5C81.2874 5.625 75.6556 0 68.7724 0C61.8892 0 56.2574 5.625 56.2574 12.5C56.2574 19.375 61.8892 25 68.7724 25ZM68.7724 37.5C61.8892 37.5 56.2574 43.125 56.2574 50C56.2574 56.875 61.8892 62.5 68.7724 62.5C75.6556 62.5 81.2874 56.875 81.2874 50C81.2874 43.125 75.6556 37.5 68.7724 37.5ZM68.7724 75C61.8892 75 56.2574 80.625 56.2574 87.5C56.2574 94.375 61.8892 100 68.7724 100C75.6556 100 81.2874 94.375 81.2874 87.5C81.2874 80.625 75.6556 75 68.7724 75Z" fill="#007AFF"/>
</g>
</svg>
