<svg width="100" height="100" viewBox="0 0 100 100" fill="none" xmlns="http://www.w3.org/2000/svg">
<path d="M71.4694 62.8931H66.9526L65.3517 61.3494C70.9548 54.8314 74.3282 46.3693 74.3282 37.1641C74.3282 16.6381 57.6902 0 37.1642 0C16.6381 0 0 16.6381 0 37.1641C0 57.6902 16.6381 74.3283 37.1642 74.3283C46.3694 74.3283 54.8314 70.9549 61.3494 65.3516L62.8932 66.9525V71.4695L91.4808 100L100 91.4808L71.4694 62.8931ZM37.1642 62.8931C22.9274 62.8931 11.4351 51.4009 11.4351 37.1641C11.4351 22.9273 22.9274 11.4351 37.1642 11.4351C51.4008 11.4351 62.8932 22.9273 62.8932 37.1641C62.8932 51.4009 51.4008 62.8931 37.1642 62.8931Z" fill="white"/>
</svg>
