<svg width="100" height="100" viewBox="0 0 100 100" fill="none" xmlns="http://www.w3.org/2000/svg">
<path fill-rule="evenodd" clip-rule="evenodd" d="M51.7342 9.10068L54.5056 13.2354C55.1566 13.1634 55.8115 13.1316 56.4673 13.1386C57.1353 13.1448 57.7957 13.1951 58.4419 13.2858L61.3725 9.1953C61.732 8.69542 62.3791 8.52336 62.9263 8.74425C63.4852 8.92948 64.0314 9.13642 64.5561 9.35962C65.0995 9.59213 65.652 9.85718 66.2108 10.1548C66.7316 10.4315 66.9889 11.0104 66.8812 11.5599L65.9194 16.4533C66.4472 16.8641 66.9524 17.3128 67.4283 17.7933C67.9012 18.2762 68.3484 18.7908 68.7591 19.331L73.7224 18.5118C74.3377 18.4095 74.9268 18.7559 75.1539 19.3093C75.4305 19.8921 75.6684 20.4183 75.9204 21.0112C76.1172 21.5072 76.297 22.0226 76.462 22.5543C76.6403 23.1223 76.411 23.7207 75.9397 24.0369L71.8112 26.806C71.8987 27.5004 71.9414 28.1971 71.9359 28.8885C71.9305 29.5945 71.8769 30.299 71.7769 30.9957L75.8582 33.9205C76.3348 34.2647 76.513 34.8692 76.3387 35.3985C76.1565 35.9511 75.9449 36.5099 75.7079 37.0664L75.6931 37.0981C75.4644 37.6391 75.2125 38.1638 74.9436 38.6706C74.667 39.1946 74.0841 39.4526 73.53 39.3449L68.6483 38.38C68.2058 38.9511 67.7283 39.4898 67.2191 39.9889L67.1664 40.0386C66.6728 40.516 66.1403 40.9647 65.573 41.3808L66.3868 46.3101C66.4852 46.9045 66.1675 47.4725 65.6467 47.7167L64.8763 48.074L64.0572 48.4243L63.2201 48.7303L62.3854 49.0047C61.8211 49.1768 61.2251 48.9466 60.9128 48.4786L58.132 44.3307C57.4104 44.4174 56.6927 44.4524 55.9853 44.4384C55.2638 44.4237 54.5461 44.3587 53.8369 44.2454L50.9369 48.2924C50.5811 48.7861 49.9426 48.9591 49.3993 48.7489C48.8599 48.5653 48.3234 48.3552 47.7903 48.1204C47.2361 47.8786 46.6998 47.6151 46.1884 47.337C45.6597 47.0493 45.4079 46.4487 45.5358 45.8891L46.5006 41.0034C45.9512 40.5664 45.4297 40.0889 44.9429 39.5767C44.4654 39.0752 44.0175 38.539 43.6067 37.9716L38.7015 38.7815C38.0956 38.8815 37.5166 38.5482 37.2818 38.0088L36.9671 37.3213L36.6439 36.5618L36.3083 35.6404L36.0092 34.6979C35.844 34.1336 36.0735 33.5485 36.5378 33.2371L40.7151 30.433C40.6446 29.7587 40.6168 29.0798 40.6322 28.404C40.6494 27.7281 40.7113 27.0539 40.8144 26.3911L36.761 23.4854C36.2518 23.1196 36.0836 22.4524 36.3223 21.9005C36.5168 21.3379 36.7269 20.7992 36.9485 20.2932L36.9656 20.2552C37.2028 19.7181 37.4693 19.1802 37.7591 18.6486C38.039 18.1355 38.6133 17.8852 39.1597 17.9913L44.0949 18.964C44.5057 18.4563 44.9521 17.9681 45.4311 17.5062L45.4838 17.4573C45.9433 17.0202 46.4247 16.611 46.9315 16.2328L46.1155 11.2906C46.0194 10.7093 46.3231 10.1513 46.8253 9.90094L47.6562 9.51266L48.508 9.14764C49.0969 8.93142 49.6511 8.74075 50.2478 8.54544C50.8236 8.37339 51.4266 8.61597 51.7336 9.09959L51.7342 9.10068ZM97.7044 52.5512L65.2376 79.8736C63.4791 81.5964 61.3896 82.9891 59.0778 83.9377C56.8326 84.86 54.3851 85.3707 51.8406 85.3707H27.5916L12.7259 59.6634L17.3542 57.0223C20.2481 55.3729 23.4893 54.8475 26.556 55.3094C26.8249 55.3514 27.0916 55.3985 27.3582 55.4551H60.7795C67.1283 55.4551 66.737 64.7151 60.7795 64.7151H38.4073C37.406 64.7151 36.5922 65.5273 36.5922 66.5302C36.5922 67.533 37.406 68.3461 38.4073 68.3461H60.7795C65.346 68.3461 69.0852 64.6129 69.0852 60.0418C69.0852 59.6125 69.0512 59.1915 68.9884 58.7793L89.6582 42.8675C97.4927 36.827 103.461 47.7043 97.7074 52.5506L97.7044 52.5512ZM23.8346 86.29L15.1007 91.274C14.2304 91.7662 13.126 91.4631 12.6324 90.5928L0.235332 68.8715C-0.25681 68.0011 0.0477785 66.8952 0.917347 66.4015L9.49992 61.5041L23.8338 86.2888L23.8346 86.29ZM54.2598 23.6814C55.6705 23.1226 57.1732 23.1893 58.462 23.7473C59.7509 24.3053 60.8298 25.3547 61.3885 26.7668C61.9473 28.1766 61.8806 29.6816 61.3226 30.969C60.7646 32.2587 59.7137 33.3351 58.3031 33.8939C56.8965 34.4503 55.3953 34.3845 54.1049 33.8272C52.8082 33.2654 51.731 32.216 51.176 30.8094C50.6196 29.4042 50.6854 27.9014 51.2427 26.6127C51.8031 25.3145 52.8539 24.2388 54.2598 23.6823V23.6814ZM57.4173 26.1606C56.7476 25.8709 55.9633 25.8352 55.2287 26.1265C54.4924 26.418 53.9429 26.9799 53.6515 27.6486C53.3624 28.3206 53.3299 29.1065 53.6213 29.8412C53.9126 30.576 54.473 31.1271 55.1434 31.4184C55.8154 31.7075 56.6012 31.7401 57.3353 31.4486C58.0699 31.1573 58.6187 30.5946 58.9084 29.9234C59.1999 29.2515 59.2355 28.4679 58.9441 27.7333C58.6528 26.9992 58.0909 26.4514 57.4182 26.16L57.4173 26.1606Z" fill="white"/>
</svg>
