<svg width="100" height="100" viewBox="0 0 100 100" fill="none" xmlns="http://www.w3.org/2000/svg">
<path fill-rule="evenodd" clip-rule="evenodd" d="M57.1427 13.1075C57.1427 14.1933 57.8787 15.1404 58.9286 15.4123C62.2027 16.2573 65.2948 17.5552 68.1353 19.2333C69.0712 19.7857 70.2622 19.6358 71.0308 18.8666L78.6216 11.2788C79.0666 10.8308 79.6738 10.5813 80.3045 10.5813C80.9359 10.5813 81.5401 10.8308 81.9881 11.2788L88.7212 18.0119C89.1692 18.4599 89.4188 19.0641 89.4188 19.6955C89.4188 20.3262 89.1692 20.9336 88.7212 21.3784L81.1334 28.9692C80.3642 29.7378 80.2143 30.9287 80.7667 31.8647C82.4448 34.7052 83.7426 37.7973 84.5877 41.0714C84.8596 42.1213 85.8067 42.8573 86.8925 42.8573H97.6188C98.9334 42.8573 100 43.9239 100 45.2384V54.7617C100 56.0762 98.9334 57.1428 97.6188 57.1428H86.8925C85.8067 57.1428 84.8596 57.8787 84.5877 58.9287C83.7429 62.2027 82.4448 65.2949 80.7667 68.1353C80.2143 69.0713 80.3642 70.2622 81.1334 71.0309L88.7212 78.6217C89.1692 79.0665 89.4188 79.6739 89.4188 80.3046C89.4188 80.936 89.1692 81.5402 88.7212 81.9882L81.9881 88.7213C81.5401 89.1693 80.9359 89.4189 80.3045 89.4189C79.6738 89.4189 79.0666 89.1693 78.6216 88.7213L71.0308 81.1336C70.2622 80.3643 69.0713 80.2144 68.1353 80.7668C65.2948 82.4449 62.2027 83.7429 58.9286 84.5878C57.8787 84.8597 57.1427 85.8068 57.1427 86.8926V97.6189C57.1427 98.9335 56.0762 100 54.7616 100H45.2383C43.9238 100 42.8572 98.9335 42.8572 97.6189V86.8926C42.8572 85.8068 42.1214 84.8597 41.0714 84.5878C37.7973 83.7429 34.7051 82.4449 31.8647 80.7668C30.9287 80.2144 29.7378 80.3643 28.9692 81.1336L21.3784 88.7213C20.9336 89.1693 20.3261 89.4189 19.6955 89.4189C19.0641 89.4189 18.4598 89.1693 18.0118 88.7213L11.2788 81.9882C10.8308 81.5402 10.5812 80.936 10.5812 80.3046C10.5812 79.6739 10.8308 79.0665 11.2788 78.6217L18.8665 71.0309C19.6357 70.2623 19.7856 69.0714 19.2332 68.1353C17.5551 65.2949 16.2573 62.2027 15.4122 58.9287C15.1403 57.8787 14.1933 57.1428 13.1076 57.1428H2.38122C1.06665 57.1428 0 56.0762 0 54.7617V45.2384C0 43.9239 1.06665 42.8573 2.38122 42.8573H13.1076C14.1933 42.8573 15.1403 42.1213 15.4122 41.0714C16.2573 37.7973 17.5551 34.7052 19.2332 31.8647C19.7856 30.9288 19.6357 29.7378 18.8665 28.9692L11.2788 21.3784C10.8308 20.9336 10.5812 20.3262 10.5812 19.6955C10.5812 19.0641 10.8308 18.4599 11.2788 18.0119L18.0118 11.2788C18.4598 10.8308 19.0641 10.5813 19.6955 10.5813C20.3261 10.5813 20.9336 10.8308 21.3784 11.2788L28.9692 18.8666C29.7377 19.6358 30.9286 19.7857 31.8647 19.2333C34.7051 17.5552 37.7973 16.2573 41.0714 15.4123C42.1214 15.1404 42.8572 14.1933 42.8572 13.1075V2.38122C42.8572 1.06665 43.9238 0 45.2383 0H54.7616C56.0762 0 57.1427 1.06665 57.1427 2.38122V13.1075ZM50 33.3332C40.8028 33.3332 33.3331 40.8028 33.3331 50C33.3331 59.1972 40.8028 66.6669 50 66.6669C59.1972 66.6669 66.6668 59.1972 66.6668 50C66.6668 40.8028 59.1972 33.3332 50 33.3332Z" fill="white"/>
</svg>
