<svg width="100" height="100" viewBox="0 0 100 100" fill="none" xmlns="http://www.w3.org/2000/svg">
<path d="M77.5 10V12.5H80H85C89.1193 12.5 92.5 15.8807 92.5 20V90C92.5 94.1193 89.1193 97.5 85 97.5H15C10.8391 97.5 7.5004 94.1278 7.5 90.0007C7.5 90.0005 7.5 90.0002 7.5 90L7.55 20.0018V20C7.55 15.8561 10.8552 12.5 15 12.5H20H22.5V10V2.5H27.5V10V12.5H30H70H72.5V10V2.5H77.5V10ZM85 92.5H87.5V90V35V32.5H85H15H12.5V35V90V92.5H15H85ZM27.5 47.5H47.5V67.5H27.5V47.5Z" stroke="white" stroke-width="5"/>
</svg>
