<svg width="100" height="100" viewBox="0 0 100 100" fill="none" xmlns="http://www.w3.org/2000/svg">
<path d="M78.973 10.5356H76.3391V7.9017C76.3391 3.53455 72.8046 0 68.4374 0C64.0703 0 60.5357 3.53455 60.5357 7.9017V10.5356H39.4645V7.9017C39.4645 3.53996 35.93 0 31.5628 0C27.1956 0.00529128 23.6611 3.53996 23.6611 7.9017V10.5356H21.0272C16.6813 10.5356 13.1255 14.0914 13.1255 18.4373V71.1153C13.1255 75.4613 16.6813 79.017 21.0272 79.017H78.973C83.319 79.017 86.8747 75.4613 86.8747 71.1153V18.4373C86.8747 14.0914 83.319 10.5356 78.973 10.5356ZM65.8035 7.9017C65.8035 6.44776 66.9888 5.2678 68.4374 5.2678C69.8861 5.2678 71.0713 6.44776 71.0713 7.9017V18.4373C71.0713 19.8913 69.8861 21.0712 68.4374 21.0712C66.9888 21.0712 65.8035 19.8913 65.8035 18.4373V7.9017ZM28.9289 7.9017C28.9289 6.45306 30.1089 5.2678 31.5628 5.2678C33.0167 5.2678 34.1967 6.45306 34.1967 7.9017V18.4373C34.1967 19.886 33.0167 21.0712 31.5628 21.0712C30.1089 21.0712 28.9289 19.886 28.9289 18.4373V7.9017ZM81.6069 71.1153C81.6069 72.5428 80.4005 73.7492 78.973 73.7492H21.0272C19.5997 73.7492 18.3933 72.5428 18.3933 71.1153V26.339H81.6069V71.1153Z" fill="white"/>
</svg>
