<svg width="100" height="100" viewBox="0 0 100 100" fill="none" xmlns="http://www.w3.org/2000/svg">
<path d="M18.1818 9.99927C18.1818 7.34753 19.2995 4.80378 21.2882 2.92881C23.2777 1.053 25.9748 0 28.7883 0C31.6008 0 34.2988 1.053 36.2875 2.92881C38.277 4.80378 39.3939 7.34753 39.3939 9.99927C39.3939 12.6519 38.277 15.1948 36.2875 17.0706C34.2988 18.9456 31.6008 19.9994 28.7883 19.9994C25.9748 19.9994 23.2777 18.9456 21.2882 17.0706C19.2995 15.1948 18.1818 12.6519 18.1818 9.99927ZM28.7883 59.9999C31.6008 59.9999 34.2988 58.9461 36.2875 57.0711C38.277 55.1953 39.3939 52.6515 39.3939 49.9998C39.3939 47.348 38.277 44.8043 36.2875 42.9285C34.2988 41.0535 31.6008 39.9997 28.7883 39.9997C25.9748 39.9997 23.2777 41.0535 21.2882 42.9285C19.2995 44.8043 18.1818 47.348 18.1818 49.9998C18.1818 52.6515 19.2995 55.1953 21.2882 57.0711C23.2777 58.9461 25.9748 59.9999 28.7883 59.9999ZM28.7883 99.9992C31.6008 99.9992 34.2988 98.9462 36.2875 97.0704C38.277 95.1954 39.3939 92.6516 39.3939 89.9999C39.3939 87.3473 38.277 84.8044 36.2875 82.9286C34.2988 81.0536 31.6008 79.9998 28.7883 79.9998C25.9748 79.9998 23.2777 81.0536 21.2882 82.9286C19.2995 84.8044 18.1818 87.3473 18.1818 89.9999C18.1818 92.6516 19.2995 95.1954 21.2882 97.0704C23.2777 98.9462 25.9748 99.9992 28.7883 99.9992ZM71.2116 19.9998C74.0251 19.9998 76.7221 18.946 78.7117 17.071C80.7004 15.1952 81.8181 12.6523 81.8181 9.9997C81.8181 7.34796 80.7004 4.80421 78.7117 2.92924C76.7222 1.05343 74.0251 0.000428329 71.2116 0.000428329C68.3991 0.000428329 65.7011 1.05343 63.7124 2.92924C61.7229 4.80421 60.606 7.34796 60.606 9.9997C60.606 12.6523 61.7229 15.1952 63.7124 17.071C65.7011 18.946 68.3991 19.9998 71.2116 19.9998ZM71.2116 59.9999C74.0251 59.9999 76.7221 58.9461 78.7117 57.0711C80.7004 55.1953 81.8181 52.6515 81.8181 49.9998C81.8181 47.348 80.7004 44.8043 78.7117 42.9285C76.7222 41.0535 74.0251 39.9997 71.2116 39.9997C68.3991 39.9997 65.7011 41.0535 63.7124 42.9285C61.7229 44.8043 60.606 47.348 60.606 49.9998C60.606 52.6515 61.7229 55.1953 63.7124 57.0711C65.7011 58.9461 68.3991 59.9999 71.2116 59.9999ZM71.2116 99.9992C74.0251 99.9992 76.7221 98.9462 78.7117 97.0704C80.7004 95.1954 81.8181 92.6516 81.8181 89.9999C81.8181 87.3473 80.7004 84.8044 78.7117 82.9286C76.7222 81.0536 74.0251 79.9998 71.2116 79.9998C68.3991 79.9998 65.7011 81.0536 63.7124 82.9286C61.7229 84.8044 60.606 87.3473 60.606 89.9999C60.606 92.6516 61.7229 95.1954 63.7124 97.0704C65.7011 98.9462 68.3991 99.9992 71.2116 99.9992Z" fill="white"/>
</svg>
