<svg width="102" height="100" viewBox="0 0 102 100" fill="none" xmlns="http://www.w3.org/2000/svg">
<path d="M2.36262 98.6364C3.27119 99.5449 4.63484 100 5.54498 100C6.45355 100 7.8172 99.5449 8.72733 98.6364L51.0003 56.3634L93.2734 98.6364C94.1819 99.5449 95.5456 100 96.4557 100C97.3643 100 98.7279 99.5449 99.6381 98.6364C101.457 96.8176 101.457 94.0904 99.6381 92.2732L57.3612 50.0002L99.6342 7.72719C101.453 5.90848 101.453 3.18119 99.6342 1.36403C97.8155 -0.454678 95.0882 -0.454678 93.271 1.36403L50.998 43.637L8.725 1.36403C6.90628 -0.454678 4.17899 -0.454678 2.36184 1.36403C0.543124 3.18275 0.543124 5.91004 2.36184 7.72719L44.6348 50.0002L2.36184 92.2732C0.543124 94.0919 0.543124 96.8192 2.36184 98.6364H2.36262Z" fill="white"/>
</svg>
