<svg width="100" height="100" viewBox="0 0 100 100" fill="none" xmlns="http://www.w3.org/2000/svg">
<path d="M12.5 50.0001C12.5 53.4518 9.70117 56.2495 6.24944 56.2495C2.79771 56.2495 0 53.4518 0 50.0001C0 46.5483 2.79771 43.7506 6.24944 43.7506C9.70117 43.7506 12.5 46.5483 12.5 50.0001Z" fill="white"/>
<path d="M15.6194 22.7177C18.6091 24.4442 19.6336 28.2666 17.9071 31.2562C16.1818 34.2448 12.3594 35.2694 9.36972 33.544C6.38004 31.8175 5.35661 27.9951 7.082 25.0055C8.80842 22.0158 12.6308 20.9923 15.6194 22.7177Z" fill="white"/>
<path d="M33.5323 9.38616C35.2587 12.3758 34.2342 16.1981 31.2446 17.9235C28.256 19.65 24.4338 18.6255 22.7072 15.6358C20.9819 12.6473 22.0053 8.825 24.9949 7.09844C27.9846 5.3731 31.8069 6.39654 33.5323 9.38616Z" fill="white"/>
<path d="M100 50.0001C100 53.4518 97.2023 56.2495 93.7506 56.2495C90.2988 56.2495 87.5 53.4518 87.5 50.0001C87.5 46.5483 90.2988 43.7506 93.7506 43.7506C97.2023 43.7506 100 46.5483 100 50.0001Z" fill="white"/>
<path d="M92.9073 24.9944C94.6327 27.9841 93.6082 31.8064 90.6196 33.5318C87.6299 35.2582 83.8077 34.2337 82.0811 31.2441C80.3558 28.2555 81.3803 24.4333 84.3688 22.7067C87.3585 20.9814 91.1808 22.0048 92.9073 24.9944Z" fill="white"/>
<path d="M74.9944 7.0787C77.9841 8.80512 79.0075 12.6275 77.2821 15.6172C75.5557 18.6058 71.7333 19.6303 68.7436 17.9049C65.7551 16.1785 64.7305 12.3561 66.4559 9.36643C68.1823 6.37787 72.0047 5.35331 74.9944 7.0787Z" fill="white"/>
<path d="M90.6333 66.4677C93.6219 68.1941 94.6464 72.0165 92.921 75.0062C91.1946 77.9948 87.3722 79.0193 84.3825 77.2928C81.394 75.5675 80.3694 71.7451 82.0948 68.7555C83.8212 65.7658 87.6436 64.7423 90.6333 66.4677Z" fill="white"/>
<path d="M77.2796 84.3835C79.006 87.372 77.9815 91.1943 74.9919 92.9209C72.0033 94.6462 68.1811 93.6228 66.4545 90.6331C64.7281 87.6435 65.7526 83.8212 68.7422 82.0957C71.7319 80.3693 75.5542 81.3939 77.2796 84.3835Z" fill="white"/>
<path d="M56.25 93.7501C56.25 97.2018 53.4523 99.9995 50.0005 99.9995C46.5488 99.9995 43.7511 97.2018 43.7511 93.7501C43.7511 90.2983 46.5488 87.4995 50.0005 87.4995C53.4523 87.4995 56.25 90.2983 56.25 93.7501Z" fill="white"/>
<path d="M56.25 6.25005C56.25 9.70178 53.4523 12.5006 50.0005 12.5006C46.5488 12.5006 43.7511 9.70178 43.7511 6.25005C43.7511 2.79832 46.5488 0.000610352 50.0005 0.000610352C53.4523 0.000610352 56.25 2.79832 56.25 6.25005Z" fill="white"/>
<path d="M31.2444 82.0759C34.2341 83.8023 35.2576 87.6247 33.5322 90.6144C31.8057 93.603 27.9833 94.6275 24.9937 92.9021C22.0051 91.1757 20.9805 87.3533 22.707 84.3636C24.4324 81.3751 28.2548 80.3505 31.2444 82.0759Z" fill="white"/>
<path d="M17.9242 68.7445C19.6506 71.7342 18.6261 75.5564 15.6364 77.2819C12.6479 79.0083 8.82561 77.9838 7.09905 74.9942C5.37371 72.0056 6.39715 68.1833 9.38677 66.4568C12.3764 64.7302 16.1987 65.7549 17.9242 68.7445Z" fill="white"/>
<path d="M65.8901 33.0776L45.3114 53.6563L34.1082 42.4532L25.2648 51.2967L40.8898 66.9217C42.0625 68.0955 43.6527 68.7549 45.3116 68.7549C46.9705 68.7549 48.5617 68.0955 49.7335 66.9217L74.7341 41.9211L65.8901 33.0776Z" fill="white"/>
</svg>
