<svg width="200" height="200" viewBox="0 0 200 200" fill="none" xmlns="http://www.w3.org/2000/svg">
<rect width="200" height="200" rx="50" fill="#007AFF"/>
<path d="M141.248 48.2638V55.3326C141.243 60.2666 139.266 64.9974 135.75 68.4859C132.236 71.9756 127.47 73.9371 122.499 73.9432H77.4998C72.529 73.9369 67.7629 71.9753 64.2485 68.4859C60.7327 64.9974 58.7553 60.2666 58.7505 55.3326V48.2638C53.5149 49.1325 48.7588 51.8157 45.326 55.8347C41.8932 59.8554 40.0061 64.9512 40 70.2205V144.667C40 150.589 42.3705 156.27 46.5905 160.458C50.8104 164.647 56.5333 167 62.4996 167H137.5C143.467 167 149.19 164.647 153.41 160.458C157.63 156.27 160 150.589 160 144.667V70.2205C159.994 64.9512 158.107 59.8554 154.674 55.8347C151.241 51.8154 146.485 49.1322 141.25 48.2638H141.248ZM128.359 104.652L98.3595 141.875H98.3582C97.0236 143.525 95.0459 144.533 92.9165 144.652C92.7772 144.659 92.6378 144.667 92.4997 144.667C90.5096 144.668 88.6011 143.884 87.1975 142.485L72.1973 127.595V127.597C70.3315 125.711 69.6134 122.984 70.3102 120.433C71.0071 117.882 73.0147 115.889 75.5848 115.196C78.1549 114.504 80.9021 115.217 82.8017 117.071L91.8767 126.079L116.639 95.3467C118.316 93.2754 120.978 92.2473 123.623 92.6486C126.27 93.0498 128.501 94.8221 129.477 97.2958C130.452 99.7709 130.027 102.574 128.358 104.653L128.359 104.652ZM70.001 55.3338V47.8886H85.0011H84.9999C84.9999 42.5694 87.8588 37.6542 92.5006 34.9947C97.1413 32.3351 102.859 32.3351 107.499 34.9947C112.141 37.6542 115 42.5694 115 47.8886H130L129.999 55.3338C129.999 57.3079 129.209 59.201 127.803 60.5968C126.397 61.9939 124.489 62.7778 122.5 62.7778H77.5005C75.5117 62.7778 73.6032 61.9939 72.197 60.5968C70.7908 59.201 70.001 57.3078 70.001 55.3338Z" fill="white"/>
</svg>
